<svg viewBox="0 0 1293 1115" fill="none" xmlns="http://www.w3.org/2000/svg">
<path d="M444.097 156.243H492.889L548.207 78.9121C578.662 36.4164 603.773 1.27689 604.022 0.790527C604.457 0.121782 600.665 0 581.832 0H559.208L521.045 53.2566L482.944 106.574L482.757 53.2566L482.633 0H444.097V156.243Z" fill="currentColor"/>
<path d="M659.775 0.668701C623.538 3.58686 603.214 17.509 597.309 43.4685C596.004 49.1224 596.377 52.4054 599.049 57.7554C601.1 61.8894 603.897 64.8076 624.408 84.2012C633.483 92.8341 636.094 96.4818 637.772 102.744C639.264 108.398 638.269 112.41 634.54 115.936C628.697 121.468 621.549 122.198 573.131 122.198L538.262 122.259L526.266 139.099L514.332 155.939L554.546 156.122C595.631 156.304 614.091 155.757 626.211 154.055C650.576 150.65 663.255 142.443 673.635 123.414C677.613 116.058 679.105 110.951 679.167 104.203C679.229 91.1317 673.262 81.3438 655.237 65.0508C644.857 55.6883 642.123 52.77 640.072 48.6968C637.523 43.7724 638.642 39.2736 642.869 37.1458C647.655 34.7747 650.887 34.5315 687.744 34.2275L723.546 33.9236L735.293 17.4482C741.819 8.38978 747.227 0.790303 747.289 0.486328C747.6 -0.182417 668.228 -4.41074e-05 659.775 0.668701Z" fill="currentColor"/>
<path d="M758.725 16.9011L746.792 33.7412L797.075 34.3494L756.985 90.5847C734.858 121.529 715.279 148.948 713.414 151.501L710.058 156.243H757.855L845.121 34.0452H895.839L906.592 18.968C912.497 10.6999 918.028 3.03987 918.836 1.94556L920.328 0L770.721 0.060791L758.725 16.9011Z" fill="currentColor"/>
<path d="M907.648 48.8792C879.679 87.9704 871.847 99.3392 868.553 105.601C863.643 115.024 862.089 120.435 862.089 127.974C862.151 132.776 862.4 133.931 864.016 137.397C870.293 150.468 889.064 157.034 917.407 156C940.529 155.21 961.102 150.103 981.675 140.133C1001.81 130.284 1018.78 117.213 1031.77 101.406C1034.01 98.6094 1050.48 75.9938 1068.26 51.0679C1086.1 26.1419 1101.63 4.49889 1102.75 2.85742L1104.93 0H1057.07L1023.32 47.2378C992.117 90.9494 989.01 95.0226 982.98 100.92C975.522 108.154 969.244 112.167 961.102 114.963C953.022 117.638 945.377 118.733 936.675 118.368C928.097 118.003 923.685 116.848 920.888 114.173C917.096 110.525 917.158 105.783 921.012 98.1841C922.379 95.3875 981.613 11.7336 989.072 1.94556L990.563 0H942.642L907.648 48.8792Z" fill="currentColor"/>
<path d="M200.76 201.292C184.911 202.447 166.824 205.183 146.686 209.439C70.2973 225.671 18.3979 272.848 3.7915 339.297C0.621602 353.584 0.0621549 360.028 0 380.273C0 396.383 0.248622 400.578 1.42957 409.15C8.01799 456.449 26.6645 503.626 59.1715 555.18C62.0928 559.801 64.6412 563.57 64.8276 563.509C65.3249 563.509 115.297 493.655 116.168 491.832C116.541 490.98 115.422 488.427 111.195 480.767C98.1427 457.179 92.7973 445.992 87.825 431.645C76.3884 398.572 76.8235 368.722 89.2545 344.647C103.985 315.891 133.198 297.835 175.712 291.086C183.792 289.749 185.657 289.749 255.084 289.567L326.189 289.323L325.07 291.026C324.449 291.938 272.301 364.831 209.276 452.923C146.188 541.015 94.5999 613.422 94.5999 613.787C94.5999 614.638 139.103 690.023 139.662 690.023C139.849 690.023 201.382 604.302 276.341 499.613C399.159 327.928 413.144 308.656 417.992 303.975C425.202 297.044 430.858 293.883 441.362 290.782C444.843 289.749 460.506 289.688 782.033 289.506L1119.04 289.384L752.696 801.157L752.075 584.544L660.396 712.457L660.085 926.82L658.656 931.988C656.915 938.25 652.627 947.247 648.96 952.293C642.869 960.622 627.516 975.638 614.526 985.913C587.116 1007.56 556.535 1021.54 522.412 1027.98C497.239 1032.72 470.824 1033.45 446.272 1029.99L434.401 1028.29L408.669 1064.28C394.497 1084.1 382.874 1100.51 382.874 1100.75C382.874 1102.03 408.607 1108.35 424.208 1110.97C443.911 1114.19 450.126 1114.68 476.728 1114.68C503.268 1114.68 510.852 1114.19 531.611 1110.97C610.859 1098.87 676.184 1057.04 733.615 981.718C739.644 973.754 1289.84 205.062 1292.14 201.353C1292.51 200.806 1183.93 200.624 750.086 200.684C451.742 200.745 204.552 200.988 200.76 201.292Z" fill="currentColor"/>
<path d="M479.028 333.825C467.281 335.285 457.15 341.364 447.329 352.915C439.995 361.548 169.807 739.207 170.18 740.423C170.429 741.456 213.875 815.201 214.683 816.052C214.932 816.295 273.855 734.525 345.581 634.274C417.308 534.023 478.282 448.971 481.079 445.323C489.097 434.684 495.126 429.213 503.082 425.322C512.281 420.762 525.644 421.066 532.233 425.991C536.894 429.456 538.013 436.995 534.719 442.709C533.911 444.168 467.094 537.671 386.293 650.507C305.492 763.342 239.359 856.237 239.359 856.906C239.296 858.486 283.799 933.994 284.359 933.386C284.608 933.082 362.923 823.712 458.393 690.327C553.863 556.882 633.234 446.114 634.788 444.108C639.077 438.515 648.525 429.76 653 427.207C658.904 423.802 664.001 422.404 670.652 422.343C686.688 422.221 693.09 430.125 687.123 442.527C686.128 444.533 600.417 564.846 496.618 709.782C392.819 854.778 307.978 973.754 308.102 974.179C308.226 974.605 318.358 991.992 330.602 1012.78C348.192 1042.57 353.102 1050.42 353.662 1049.81C354.843 1048.53 865.632 334.798 865.943 333.947C866.191 333.278 831.757 333.157 674.63 333.218C569.215 333.278 481.141 333.521 479.028 333.825Z" fill="currentColor"/>
</svg>
